<!--?xml version="1.0" encoding="utf-8"?-->
<svg version="1.1" x="0px" y="0px" id="iconz14840593766259727000" viewBox="0 0 512 512" xmlns="http://www.w3.org/2000/svg" style="enable-background:new 0 0 512 512;" xml:space="preserve"><style type="text/css">
.baseF{fill:#FFDFCA}
.baseB{fill:#232256}
.eyeF{fill:#FFFFFF}
.eyeB{fill:#232256}
.eyeT{fill:#BDC7D6}
.hairF{fill:#FFFFFF}
.hairB{fill:#232256}
.hairU{fill:#5E7AA5}
.hairT{fill:#BDC7D6}
.noseF{fill:#FFDFCA}
.noseB{fill:#232256}
.noseU{fill:#5E7AA5}
.mayugeB{fill:#232256}
.mayugeU{fill:#5E7AA5}
.mayugeT{fill:#BDC7D6}
.mayugeF{fill:#FFFFFF}
.mouthF{fill:#FFFFFF}
.mouthB{fill:#232256}
.mouthT{fill:#BDC7D6}
.mouthU{fill:#5E7AA5}
.hatF{fill:#FFFFFF}
.hatB{fill:#232256}
.hatU{fill:#5E7AA5}
.hatT{fill:#BDC7D6}
.higeU{fill:#5E7AA5}
.higeB{fill:#232256}
.higeF{fill:#FFFFFF}
.bodyF{fill:#FFFFFF}
.bodyB{fill:#232256}
.bodyU{fill:#5E7AA5}
.bodyT{fill:#BDC7D6}
.bodyS{fill:#8DA6C9}
.bodyH{fill:#FFDFCA}
.glassF{fill:#FFFFFF}
.glassB{fill:#232256}
.glassT{fill:#BDC7D6}
.glassU{fill:#5E7AA5}
.kirakiraF{fill:#FFFFFF}
.kirakiraB{fill:#232256}
.kirakiraU{fill:#5E7AA5}
.kirakiraT{fill:#BDC7D6}
.kirakiraH{fill:#FFDFCA}
.backF{fill:#FFFFFF}
.backB{fill:#232256}
.backU{fill:#5E7AA5}
.backS{fill:#8DA6C9}
.backA{fill:#FFE38B}
.backG{fill:#EEEEEF}
.backC{fill:#19DB9F}
.backD{fill:#DBBCA1}
</style>
<g class="icosvg">
<g>
	<rect x="-134" y="-134" class="backA" width="780" height="780" style="fill: rgb(255, 227, 139);"></rect>
</g>


<g>
	<path class="bodyF" d="M462.901,645.417c0,0,0-42.134,0-73.971c4.425-117.086-58.551-168.828-129.766-200.789   c-18.129-9.741-20.552-10.697-77.135-11.47c-56.583,0.773-59.006,1.73-77.133,11.47C107.511,402.613,44.625,454.674,49.1,571.446   c-0.002,31.837-0.002,73.971-0.002,73.971" style="fill: rgb(255, 255, 255);"></path>
	<path class="bodyB" d="M468.176,645.417c0-0.001,0-42.134,0-73.971c-0.002-37.185-3.752-66.337-12.52-91.031   c-17.802-59.258-92.525-104.335-120.32-114.565c-7.699-4.139-13.342-7.082-21.751-8.82c-10.832-2.237-25.787-2.672-57.593-3.121   c-28.287,0.395-43.234,0.797-53.794,2.436c-10.342,1.571-16.57,4.656-25.54,9.508c-28.557,10.6-102.559,55.578-120.314,114.563   c-8.77,24.692-12.52,53.844-12.523,91.029c0,31.838,0,73.971,0,73.971c0.108,6.869,10.423,6.993,10.554,0   c1.976-70.106-13.679-162.707,51.346-220.795c25.665-23.832,48.615-37.408,75.369-49.17c7.643-4.053,11.716-6.429,19.477-8.09   c9.102-1.924,23.696-2.48,55.432-2.898c28.204,0.377,42.878,0.843,52.174,2.309c9.703,1.553,13.888,3.974,22.732,8.678   c27.551,10.118,98.328,53.33,114.805,108.499c8.207,23.079,11.917,50.998,11.914,87.496c0,31.838,0,73.971,0,73.971   c0.056,6.816,10.445,7.025,10.554,0H468.176z" style="fill: rgb(35, 34, 86);"></path>
	<path class="bodyF" d="M326.293,382.509c26.674,77.55-64.32,96.909-70.294,29.234c-5.972,67.676-96.968,48.316-70.291-29.234H326.293   z" style="fill: rgb(255, 255, 255);"></path>
	<path class="bodyB" d="M329.546,377.949h-3.253H182.454c-29.346,76.288,51.998,105.975,73.545,52.958   C277.547,483.931,358.884,454.223,329.546,377.949z M260.541,411.342l-9.084-0.001c-6.427,62.187-83.856,41.512-62.495-24.272   h134.078C344.386,452.82,266.99,473.556,260.541,411.342z" style="fill: rgb(35, 34, 86);"></path>
	<path class="bodyB" d="M260.72,489.806c-0.119,7.027-10.574,7.026-10.692,0C250.146,482.779,260.602,482.78,260.72,489.806z" style="fill: rgb(35, 34, 86);"></path>
	<path class="bodyB" d="M260.72,545.177c-0.119,7.027-10.574,7.026-10.692,0C250.146,538.15,260.602,538.151,260.72,545.177z" style="fill: rgb(35, 34, 86);"></path>
	<path class="bodyB" d="M260.72,600.551c-0.119,7.027-10.574,7.026-10.692,0C250.146,593.523,260.602,593.524,260.72,600.551z" style="fill: rgb(35, 34, 86);"></path>
</g>

<g>
	<path class="baseF" d="M370.823,211.357h-1.083C365.238,142.073,331.823,86.564,256,86.564s-109.237,55.509-113.74,124.793h-1.083   c-14.838-8.773-36.38,8.077-32.988,28.423c7.12,42.713,9.94,53.304,22.629,59.716c6.476,3.272,12.413,3.387,12.413,3.387h1.277   c4.228,26.866,12.675,46.638,23.503,61.72c16.545,23.046,59.074,39.94,87.989,39.94s71.445-16.894,87.989-39.94   c10.828-15.082,19.275-34.854,23.503-61.72h1.277c0,0,5.937-0.115,12.415-3.387c12.689-6.413,15.506-17.004,22.627-59.716   C407.203,219.434,385.661,202.584,370.823,211.357z" style="fill: rgb(255, 223, 202);"></path>
	<path class="baseB" d="M409.44,235.493c-0.007-8.856-3.759-16.746-9.241-22.42c-2.749-2.844-5.951-5.161-9.439-6.793   c-3.486-1.629-7.276-2.577-11.159-2.578c-1.71-0.003-3.434,0.222-5.14,0.617c-1.031-11.102-2.802-21.857-5.42-32.084   c-6.669-26.051-18.756-48.836-37.452-65.137c-9.337-8.142-20.307-14.626-32.909-19.04c-12.6-4.418-26.816-6.772-42.68-6.771   c-21.149-0.004-39.382,4.191-54.738,11.86c-23.061,11.495-39.403,30.751-49.784,54.246c-7.548,17.061-12.016,36.394-13.923,56.93   c-1.712-0.397-3.443-0.623-5.159-0.621c-3.884,0.001-7.675,0.949-11.161,2.578c-5.23,2.452-9.827,6.427-13.198,11.446   c-3.361,5.014-5.486,11.134-5.486,17.767c-0.001,1.693,0.138,3.421,0.432,5.166l-0.001-0.011   c3.584,21.412,6.033,34.841,9.469,44.399c1.726,4.772,3.764,8.644,6.443,11.822c2.67,3.181,5.926,5.521,9.543,7.338   c4.604,2.309,8.839,3.257,11.575,3.655c1.327,7.451,2.965,14.407,4.92,20.855c4.719,15.576,11.177,28.362,18.792,38.965   c4.587,6.381,10.766,12.101,17.884,17.182c10.684,7.612,23.512,13.789,36.541,18.127c13.036,4.327,26.244,6.821,37.85,6.83   c15.463-0.022,33.82-4.419,50.74-11.766c8.453-3.682,16.528-8.114,23.651-13.191c7.118-5.082,13.297-10.801,17.884-17.182   c7.616-10.602,14.074-23.389,18.792-38.965c1.954-6.448,3.593-13.403,4.92-20.855c2.735-0.398,6.969-1.346,11.575-3.655   c3.616-1.817,6.874-4.156,9.544-7.338c2.006-2.378,3.661-5.163,5.084-8.407c2.134-4.876,3.799-10.804,5.477-18.525   c1.673-7.721,3.342-17.25,5.35-29.288l0.096-0.578l-0.095,0.569C409.304,238.903,409.441,237.183,409.44,235.493z M398.606,238.913   c-3.537,21.3-6.057,34.523-8.982,42.541c-1.454,4.017-2.946,6.664-4.588,8.611c-1.65,1.943-3.504,3.332-6.233,4.721   c-1.799,0.91-3.56,1.518-5.12,1.942c0.934-7.445,1.572-15.359,1.868-23.805c0.102-2.913-2.176-5.356-5.089-5.458   c-2.912-0.102-5.355,2.176-5.457,5.088h-0.001c-0.739,21.097-3.622,38.545-8.034,53.102c-4.416,14.56-10.348,26.232-17.265,35.871   c-3.686,5.143-9.027,10.177-15.439,14.745c-9.613,6.862-21.605,12.673-33.744,16.705c-12.131,4.043-24.438,6.3-34.519,6.291   c-13.452,0.022-30.817-4.027-46.527-10.889c-7.862-3.422-15.328-7.535-21.737-12.107c-6.413-4.568-11.754-9.602-15.439-14.744   c-6.916-9.639-12.848-21.312-17.264-35.871c-4.412-14.557-7.296-32.005-8.036-53.102c-0.103-2.913-2.546-5.191-5.459-5.088   c-2.913,0.102-5.191,2.546-5.088,5.459c0.296,8.449,0.934,16.365,1.868,23.812c-1.559-0.422-3.329-1.037-5.121-1.949   c-2.728-1.389-4.582-2.778-6.233-4.721c-1.234-1.465-2.373-3.308-3.488-5.845c-1.672-3.797-3.232-9.136-4.828-16.52   c-1.602-7.384-3.257-16.799-5.255-28.787l-0.001-0.011c-0.196-1.154-0.286-2.289-0.287-3.408c-0.007-5.8,2.494-11.167,6.28-15.086   c1.884-1.953,4.071-3.517,6.32-4.565c2.25-1.052,4.545-1.587,6.691-1.586c1.535,0.005,2.991,0.276,4.398,0.831   c-0.209,4.295-0.347,8.618-0.348,12.991c0,2.914,2.363,5.277,5.277,5.277c2.913,0,5.277-2.363,5.277-5.277H147   c0-18.842,1.993-36.867,6.183-53.224c6.291-24.557,17.48-45.262,34.164-59.799c8.352-7.277,18.098-13.049,29.464-17.036   c11.365-3.983,24.364-6.176,39.19-6.177c19.77,0.004,36.28,3.892,50.023,10.749c20.587,10.293,35.194,27.323,44.849,49.076   c9.632,21.732,14.134,48.145,14.128,76.412c0,2.914,2.362,5.277,5.277,5.277c2.913,0,5.277-2.363,5.277-5.277   c0-4.373-0.12-8.705-0.329-12.999c1.402-0.549,2.85-0.819,4.376-0.823c2.146-0.001,4.44,0.533,6.689,1.585   c3.375,1.57,6.598,4.315,8.897,7.759c2.307,3.449,3.701,7.533,3.701,11.893C398.886,236.612,398.796,237.752,398.606,238.913z" style="fill: rgb(35, 34, 86);"></path>
</g>

<g>
	<path class="hairB" d="M442.976,280.768c-19.444-71.79-33.057-99.512-55.668-147.621c-26.338-56.04-65.435-78.903-92.273-65.88   c0,0-80.665-47.752-137.047,9.84c-22.887,23.379-43.986,79.921-59.095,118.1c-14.907,37.669-37.711,82.146-29.164,120.383   c12.568,56.235,59.075,68.617,79.049,71.344c3.756,0.513,6.939-2.738,6.341-6.482c-1.103-6.912-1.254-20.302,2.87-46.109   c12.533-78.412,77.651-276.701,129.744-201.196c0,0,41.368-15.166,66.677,75.831v0l4.11,48.657   c0.451,5.343,8.006,6.049,9.418,0.875c1.186-4.345,2.306-9.051,3.179-13.856c2.933-16.157,7.788-26.8,13.382-31.374   c3.66,0.214,8.033,1.672,13.336,5.06c20.251,10.282-16.651,81.154-16.651,81.154l-12.414,3.388c0,0-3.482,54.29-12.431,78.233   c-1.196,3.2,1.33,6.527,4.73,6.182C404.769,382.867,459.673,342.414,442.976,280.768z" style="fill: rgb(35, 34, 86);"></path>
</g>

<g>
	<path class="mouthB" d="M259.755,354.246c-16.552-0.757-24.666-5.616-26.901-8.765c-0.474-0.667-0.556-1.539-0.222-2.286
		c1.119-2.5,1.493-4.714-0.011-4.719c-4.944-0.018-12.378,13.394-7.287,14.283c1.123,0.196,2.154-0.862,2.818-1.778
		c0.464-0.64,1.369-0.751,2.005-0.283c3.859,2.839,16.192,11.043,29.849,11.043c16.514,0,20.896-7.797,20.896-9.761
		s-0.906-2.719-4.229-1.208C273.349,352.283,267.408,354.596,259.755,354.246z" style="fill: rgb(35, 34, 86);"></path>
</g>


<g>
	<path class="noseF" d="M257.188,319.018c-4.45,0-10.268-2.395-10.717-6.844c-0.287-2.831,2.885-5.273,5.229-6.67
		c1.549-0.926,2.498-2.571,2.539-4.373C254.239,301.131,265.324,313.086,257.188,319.018z" style="fill: rgb(255, 223, 202);"></path>
	<path class="noseB" d="M250.515,294.972c0.105,1.488,0.142,3.002,0.142,4.352c0,0.607-0.009,1.191-0.018,1.753v-0.028
		c-0.018,0.584-0.304,1.071-0.786,1.364c-1.289,0.773-2.829,1.812-4.218,3.248c-0.691,0.722-1.352,1.554-1.879,2.569
		c-0.523,1.005-0.908,2.229-0.907,3.581l0.05,0.825l3.571-0.462l-3.582,0.361c0.183,1.861,0.964,3.534,2.005,4.828
		c1.576,1.955,3.643,3.19,5.769,4.02c2.139,0.82,4.375,1.228,6.525,1.233c1.986,0,3.598-1.612,3.598-3.598
		c0-1.987-1.611-3.598-3.598-3.598c-1.587,0.012-3.689-0.49-5.104-1.301c-0.714-0.396-1.249-0.851-1.561-1.245l-0.471-1.064
		l-0.012-0.101l-0.791,0.101h0.799l-0.008-0.101l-0.791,0.101h0.799l0.103-0.274c0.155-0.319,0.613-0.888,1.253-1.432
		c0.635-0.551,1.424-1.085,2.136-1.509c2.62-1.561,4.233-4.364,4.297-7.385v-0.028c0.008-0.558,0.018-1.184,0.018-1.859
		c0-1.474-0.036-3.148-0.158-4.861c-0.142-1.985-1.863-3.478-3.846-3.335c-1.984,0.141-3.477,1.861-3.335,3.846L250.515,294.972z" style="fill: rgb(35, 34, 86);"></path>
</g>


<g>
	<g>
		<path class="eyeB" d="M217.133,261.278c-2.372-1.811-4.966-2.062-8.181-2.062c-2.326,0-4.49,0.617-6.424,1.615
			c-1.026-0.622-2.489-1.779-3.546-3.785c-1.035-1.795-3.761-1.31-3.773,0.74c-0.016,2.501,1.874,6.131,2.443,7.17
			c-1.737,2.345-2.8,5.217-2.8,8.359c0,4.542,1.275,7.85,3.386,10.115c2.586,2.776,5.534,5.237,9.822,5.237
			c3.215,0,7.266-0.893,9.638-2.705c3.373-2.575,5.355-8.074,5.355-12.646C223.053,268.743,220.507,263.855,217.133,261.278z" style="fill: rgb(35, 34, 86);"></path>
		<path class="eyeB" d="M311.229,261.278c-2.372-1.811-4.966-2.062-8.181-2.062c-2.327,0-4.49,0.617-6.424,1.615
			c-1.026-0.622-2.489-1.779-3.546-3.785c-1.035-1.795-3.761-1.31-3.773,0.74c-0.016,2.501,1.874,6.131,2.443,7.17
			c-1.737,2.345-2.8,5.217-2.8,8.359c0,4.542,1.275,7.85,3.386,10.115c2.586,2.776,5.534,5.237,9.822,5.237
			c3.215,0,7.266-0.893,9.638-2.705c3.373-2.575,5.355-8.074,5.355-12.646C317.149,268.743,314.603,263.855,311.229,261.278z" style="fill: rgb(35, 34, 86);"></path>
	</g>
</g>


<g>
	<path class="mayugeB" d="M217.795,226.755c-16.069-2.006-21.117,4.35-25.312,10.762c8.086-7.378,32.822-5.522,38.386,2.428
		C238.368,245.632,234.253,230.51,217.795,226.755z" style="fill: rgb(35, 34, 86);"></path>
	<path class="mayugeB" d="M294.206,226.755c-16.458,3.755-20.573,18.877-13.073,13.191c5.564-7.95,30.3-9.806,38.386-2.428
		C315.323,231.105,310.275,224.749,294.206,226.755z" style="fill: rgb(35, 34, 86);"></path>
</g>

</g></svg>